<svg width="315" height="362" viewBox="0 0 315 362" fill="none" xmlns="http://www.w3.org/2000/svg">
<g filter="url(#filter0_d_20855_9359)">
<rect x="16" width="282.667" height="282" rx="12" fill="#FCFCFD"/>
<path d="M135.999 82.3335H98.666V119.667H135.999V82.3335ZM130.666 114.333H103.999V87.6668H130.666V114.333Z" fill="#23262F"/>
<path d="M175.999 189H170.666V199.667H215.999V194.333H175.999V189Z" fill="#23262F"/>
<path d="M125.333 93H109.333V109H125.333V93Z" fill="#23262F"/>
<path d="M98.666 199.667H135.999V162.333H98.666V199.667ZM103.999 167.667H130.666V194.333H103.999V167.667Z" fill="#23262F"/>
<path d="M125.333 173H109.333V189H125.333V173Z" fill="#23262F"/>
<path d="M178.666 82.3335V119.667H215.999V82.3335H178.666ZM210.666 114.333H183.999V87.6668H210.666V114.333Z" fill="#23262F"/>
<path d="M205.333 93H189.333V109H205.333V93Z" fill="#23262F"/>
<path d="M216 125H205.333V135.667H216V125Z" fill="#23262F"/>
<path d="M109.333 146.333H98.666V157H109.333V146.333Z" fill="#23262F"/>
<path d="M154.666 125H133.333V130.333H160V119.667V114.333H165.333V103.667H160H154.666H149.333V93.0002H154.666V98.3335H173.333V82.3335H168V93.0002H160V82.3335H157.333H146.666H144V109H154.666V114.333H144V119.667H154.666V125Z" fill="#23262F"/>
<path d="M106.666 141H117.333H122.666H125.333V146.333H114.666V151.667H125.333V157H146.666V151.667H130.666V146.333V135.667H122.666V127.667H117.333V135.667H111.999V125H98.666V130.333H106.666V141Z" fill="#23262F"/>
<path d="M157.333 189V175.667H146.666V165H141.333V181H152V189H141.333V194.333H152V199.667H165.333V194.333H157.333V189Z" fill="#23262F"/>
<path d="M183.999 135.667H173.332V122.333H167.999V141H194.666V135.667H189.332V130.333H197.332V125H189.332H183.999H178.666V130.333H183.999V135.667Z" fill="#23262F"/>
<path d="M178.666 183.667H186.666V189H197.333V183.667V178.334V170.334H186.666V178.334H178.666V170.334H173.333V178.334H167.999V157H162.666V151.667H157.333V135.667H138.666V146.334H143.999V141H151.999V151.667V162.334H162.666V178.334V183.667H167.999H173.333H178.666Z" fill="#23262F"/>
<path d="M210.666 149H202.666H197.333H184V159.667H178.666V149H173.333V165H189.333V154.333H197.333V162.333H202.666V154.333H210.666V170.333H202.666V186.333H216V181H208V175.667H216V154.333V149V141H210.666V149Z" fill="#23262F"/>
<rect x="16.5" y="0.5" width="281.667" height="281" rx="11.5" stroke="#E6E8EC"/>
</g>
<defs>
<filter id="filter0_d_20855_9359" x="0" y="0" width="314.667" height="362" filterUnits="userSpaceOnUse" color-interpolation-filters="sRGB">
<feFlood flood-opacity="0" result="BackgroundImageFix"/>
<feColorMatrix in="SourceAlpha" type="matrix" values="0 0 0 0 0 0 0 0 0 0 0 0 0 0 0 0 0 0 127 0" result="hardAlpha"/>
<feMorphology radius="48" operator="erode" in="SourceAlpha" result="effect1_dropShadow_20855_9359"/>
<feOffset dy="64"/>
<feGaussianBlur stdDeviation="32"/>
<feColorMatrix type="matrix" values="0 0 0 0 0.121458 0 0 0 0 0.182875 0 0 0 0 0.275 0 0 0 0.12 0"/>
<feBlend mode="multiply" in2="BackgroundImageFix" result="effect1_dropShadow_20855_9359"/>
<feBlend mode="normal" in="SourceGraphic" in2="effect1_dropShadow_20855_9359" result="shape"/>
</filter>
</defs>
</svg>
